<svg xmlns="http://www.w3.org/2000/svg" viewBox="0 0 24 24"><path fill="#2680F8" d="M4.298 23h15.658a.777.777 0 0 0 .77-.657L23.99 1.916a.78.78 0 0 0-.635-.897l-.135-.01L.778 1A.774.774 0 0 0 0 1.775l.009.137 3.265 20.196c.081.509.515.887 1.024.892zM15.735 8.39l-1.211 7.205h-5L8.174 8.39h7.561z"/><path fill="#DEDEDE" d="M12 8.39H8.174l1.35 7.206H12V8.39z"/><path fill="#216FD8" d="M.769 1A.774.774 0 0 0 0 1.775l.009.137 3.265 20.196c.081.509.515.887 1.024.892H12v-7.404H9.524L8.174 8.39H12V1.005L.778 1H.769z"/></svg>